<svg width="263" height="140" viewBox="0 0 263 140" fill="none" xmlns="http://www.w3.org/2000/svg">
<path d="M1 81.4083L3.4386 85.294C5.87719 89.1798 15.1228 96.5852 20 95.4513C24.8772 94.3174 25.386 84.6441 30.2632 79.6178C35.1404 74.5914 40.0175 74.578 44.8947 77.4738C49.7719 80.3696 54.6491 86.1746 59.5263 88.3866C64.4035 90.5986 69.2807 89.2177 74.1579 86.3726C79.0351 83.5275 83.9123 79.2182 88.7895 72.3818C93.6667 65.5454 98.5439 56.1819 103.421 51.5552C108.298 46.9286 110.623 45.7706 115.5 45.4513C120.377 45.1321 127.807 45.6516 132.684 50.482C137.561 55.3125 143 72.3818 147.316 66.9406C151.632 61.4994 157.07 60.1864 161.947 57.1675C166.825 54.1487 171.702 56.0837 176.579 50.2104C181.456 44.3371 186.333 30.6554 191.211 28.3698C196.088 26.0841 200.965 35.1944 205.842 33.388C210.719 31.5816 215.596 18.8584 220.474 14.3504C225.351 9.84233 230.228 13.5494 235.105 19.4007C239.982 25.2521 244.623 41.0022 249.5 36.9513C254.377 32.9005 259.491 9.04869 261.93 1" stroke="#3B82F6"/>
<path d="M3.4386 85.294L1 81.4083V140H261.93V1C259.491 9.04869 254.377 32.9005 249.5 36.9513C244.623 41.0022 239.982 25.2521 235.105 19.4007C230.228 13.5494 225.351 9.84233 220.474 14.3504C215.596 18.8584 210.719 31.5816 205.842 33.388C200.965 35.1944 196.088 26.0841 191.211 28.3698C186.333 30.6554 181.456 44.3371 176.579 50.2104C171.702 56.0837 166.825 54.1487 161.947 57.1675C157.07 60.1864 151.632 61.4994 147.316 66.9406C143 72.3818 137.561 55.3125 132.684 50.482C127.807 45.6516 120.377 45.132 115.5 45.4513C110.623 45.7706 108.298 46.9286 103.421 51.5552C98.5439 56.1819 93.6667 65.5454 88.7895 72.3818C83.9123 79.2182 79.0351 83.5275 74.1579 86.3726C69.2807 89.2177 64.4035 90.5986 59.5263 88.3866C54.6491 86.1746 49.7719 80.3696 44.8947 77.4738C40.0175 74.578 35.1404 74.5914 30.2632 79.6178C25.386 84.6441 24.8772 94.3174 20 95.4513C15.1228 96.5852 5.87719 89.1798 3.4386 85.294Z" fill="url(#paint0_linear_216_3241)" fill-opacity="0.2"/>
<defs>
<linearGradient id="paint0_linear_216_3241" x1="131.465" y1="1" x2="131.465" y2="140" gradientUnits="userSpaceOnUse">
<stop stop-color="#3B82F6"/>
<stop offset="1" stop-color="#234C90"/>
</linearGradient>
</defs>
</svg>
